<mxfile host="app.diagrams.net" modified="2024-04-24T01:21:21.077Z" agent="Mozilla/5.0 (Windows NT 10.0; Win64; x64) AppleWebKit/537.36 (KHTML, like Gecko) Chrome/124.0.0.0 Safari/537.36" etag="wPMlcg_8_Cu6Cx9deWWj" version="24.2.8" type="device">
  <diagram name="Page-1" id="e8o9qeyPSrvIum5FM-DF">
    <mxGraphModel dx="1591" dy="1783" grid="1" gridSize="10" guides="1" tooltips="1" connect="1" arrows="1" fold="1" page="1" pageScale="1" pageWidth="850" pageHeight="1100" math="0" shadow="0">
      <root>
        <mxCell id="0" />
        <mxCell id="1" parent="0" />
        <mxCell id="qBLTDuadF-PluUk9ZCLZ-1" value="App_User" style="swimlane;fontStyle=0;childLayout=stackLayout;horizontal=1;startSize=26;horizontalStack=0;resizeParent=1;resizeParentMax=0;resizeLast=0;collapsible=1;marginBottom=0;align=center;fontSize=14;" vertex="1" parent="1">
          <mxGeometry x="60" y="40" width="160" height="146" as="geometry" />
        </mxCell>
        <mxCell id="qBLTDuadF-PluUk9ZCLZ-2" value="*user_id INT" style="text;strokeColor=none;fillColor=none;spacingLeft=4;spacingRight=4;overflow=hidden;rotatable=0;points=[[0,0.5],[1,0.5]];portConstraint=eastwest;fontSize=12;whiteSpace=wrap;html=1;" vertex="1" parent="qBLTDuadF-PluUk9ZCLZ-1">
          <mxGeometry y="26" width="160" height="30" as="geometry" />
        </mxCell>
        <mxCell id="qBLTDuadF-PluUk9ZCLZ-3" value="username NVARCHAR(10)" style="text;strokeColor=none;fillColor=none;spacingLeft=4;spacingRight=4;overflow=hidden;rotatable=0;points=[[0,0.5],[1,0.5]];portConstraint=eastwest;fontSize=12;whiteSpace=wrap;html=1;" vertex="1" parent="qBLTDuadF-PluUk9ZCLZ-1">
          <mxGeometry y="56" width="160" height="30" as="geometry" />
        </mxCell>
        <mxCell id="qBLTDuadF-PluUk9ZCLZ-4" value="password NVARCHAR(20)" style="text;strokeColor=none;fillColor=none;spacingLeft=4;spacingRight=4;overflow=hidden;rotatable=0;points=[[0,0.5],[1,0.5]];portConstraint=eastwest;fontSize=12;whiteSpace=wrap;html=1;" vertex="1" parent="qBLTDuadF-PluUk9ZCLZ-1">
          <mxGeometry y="86" width="160" height="30" as="geometry" />
        </mxCell>
        <mxCell id="qBLTDuadF-PluUk9ZCLZ-5" value="role NVARCHAR(20)" style="text;strokeColor=none;fillColor=none;spacingLeft=4;spacingRight=4;overflow=hidden;rotatable=0;points=[[0,0.5],[1,0.5]];portConstraint=eastwest;fontSize=12;whiteSpace=wrap;html=1;" vertex="1" parent="qBLTDuadF-PluUk9ZCLZ-1">
          <mxGeometry y="116" width="160" height="30" as="geometry" />
        </mxCell>
        <mxCell id="qBLTDuadF-PluUk9ZCLZ-6" value="Product" style="swimlane;fontStyle=0;childLayout=stackLayout;horizontal=1;startSize=26;horizontalStack=0;resizeParent=1;resizeParentMax=0;resizeLast=0;collapsible=1;marginBottom=0;align=center;fontSize=14;" vertex="1" parent="1">
          <mxGeometry x="850" y="60" width="190" height="206" as="geometry" />
        </mxCell>
        <mxCell id="qBLTDuadF-PluUk9ZCLZ-7" value="*product_id INT" style="text;strokeColor=none;fillColor=none;spacingLeft=4;spacingRight=4;overflow=hidden;rotatable=0;points=[[0,0.5],[1,0.5]];portConstraint=eastwest;fontSize=12;whiteSpace=wrap;html=1;" vertex="1" parent="qBLTDuadF-PluUk9ZCLZ-6">
          <mxGeometry y="26" width="190" height="30" as="geometry" />
        </mxCell>
        <mxCell id="qBLTDuadF-PluUk9ZCLZ-8" value="name NVARCHAR(50)" style="text;strokeColor=none;fillColor=none;spacingLeft=4;spacingRight=4;overflow=hidden;rotatable=0;points=[[0,0.5],[1,0.5]];portConstraint=eastwest;fontSize=12;whiteSpace=wrap;html=1;" vertex="1" parent="qBLTDuadF-PluUk9ZCLZ-6">
          <mxGeometry y="56" width="190" height="30" as="geometry" />
        </mxCell>
        <mxCell id="qBLTDuadF-PluUk9ZCLZ-9" value="quantity DECIMAL(10,2)" style="text;strokeColor=none;fillColor=none;spacingLeft=4;spacingRight=4;overflow=hidden;rotatable=0;points=[[0,0.5],[1,0.5]];portConstraint=eastwest;fontSize=12;whiteSpace=wrap;html=1;" vertex="1" parent="qBLTDuadF-PluUk9ZCLZ-6">
          <mxGeometry y="86" width="190" height="30" as="geometry" />
        </mxCell>
        <mxCell id="qBLTDuadF-PluUk9ZCLZ-10" value="measurement NVARCHAR(5)" style="text;strokeColor=none;fillColor=none;spacingLeft=4;spacingRight=4;overflow=hidden;rotatable=0;points=[[0,0.5],[1,0.5]];portConstraint=eastwest;fontSize=12;whiteSpace=wrap;html=1;" vertex="1" parent="qBLTDuadF-PluUk9ZCLZ-6">
          <mxGeometry y="116" width="190" height="30" as="geometry" />
        </mxCell>
        <mxCell id="qBLTDuadF-PluUk9ZCLZ-11" value="buying_price DECIMAL(8,2)" style="text;strokeColor=none;fillColor=none;spacingLeft=4;spacingRight=4;overflow=hidden;rotatable=0;points=[[0,0.5],[1,0.5]];portConstraint=eastwest;fontSize=12;whiteSpace=wrap;html=1;" vertex="1" parent="qBLTDuadF-PluUk9ZCLZ-6">
          <mxGeometry y="146" width="190" height="30" as="geometry" />
        </mxCell>
        <mxCell id="qBLTDuadF-PluUk9ZCLZ-12" value="selling_price DECIMAL(8,2)" style="text;strokeColor=none;fillColor=none;spacingLeft=4;spacingRight=4;overflow=hidden;rotatable=0;points=[[0,0.5],[1,0.5]];portConstraint=eastwest;fontSize=12;whiteSpace=wrap;html=1;" vertex="1" parent="qBLTDuadF-PluUk9ZCLZ-6">
          <mxGeometry y="176" width="190" height="30" as="geometry" />
        </mxCell>
        <mxCell id="qBLTDuadF-PluUk9ZCLZ-13" value="Operation" style="swimlane;fontStyle=0;childLayout=stackLayout;horizontal=1;startSize=26;horizontalStack=0;resizeParent=1;resizeParentMax=0;resizeLast=0;collapsible=1;marginBottom=0;align=center;fontSize=14;" vertex="1" parent="1">
          <mxGeometry x="320" y="30" width="160" height="86" as="geometry" />
        </mxCell>
        <mxCell id="qBLTDuadF-PluUk9ZCLZ-14" value="*oper_id INT" style="text;strokeColor=none;fillColor=none;spacingLeft=4;spacingRight=4;overflow=hidden;rotatable=0;points=[[0,0.5],[1,0.5]];portConstraint=eastwest;fontSize=12;whiteSpace=wrap;html=1;" vertex="1" parent="qBLTDuadF-PluUk9ZCLZ-13">
          <mxGeometry y="26" width="160" height="30" as="geometry" />
        </mxCell>
        <mxCell id="qBLTDuadF-PluUk9ZCLZ-15" value="type NVARCHAR(10)" style="text;strokeColor=none;fillColor=none;spacingLeft=4;spacingRight=4;overflow=hidden;rotatable=0;points=[[0,0.5],[1,0.5]];portConstraint=eastwest;fontSize=12;whiteSpace=wrap;html=1;" vertex="1" parent="qBLTDuadF-PluUk9ZCLZ-13">
          <mxGeometry y="56" width="160" height="30" as="geometry" />
        </mxCell>
        <mxCell id="qBLTDuadF-PluUk9ZCLZ-17" value="Transaction" style="swimlane;fontStyle=0;childLayout=stackLayout;horizontal=1;startSize=26;horizontalStack=0;resizeParent=1;resizeParentMax=0;resizeLast=0;collapsible=1;marginBottom=0;align=center;fontSize=14;" vertex="1" parent="1">
          <mxGeometry x="560" y="-100" width="160" height="116" as="geometry" />
        </mxCell>
        <mxCell id="qBLTDuadF-PluUk9ZCLZ-18" value="*trans_id INT" style="text;strokeColor=none;fillColor=none;spacingLeft=4;spacingRight=4;overflow=hidden;rotatable=0;points=[[0,0.5],[1,0.5]];portConstraint=eastwest;fontSize=12;whiteSpace=wrap;html=1;" vertex="1" parent="qBLTDuadF-PluUk9ZCLZ-17">
          <mxGeometry y="26" width="160" height="30" as="geometry" />
        </mxCell>
        <mxCell id="qBLTDuadF-PluUk9ZCLZ-19" value="executionDate DATE" style="text;strokeColor=none;fillColor=none;spacingLeft=4;spacingRight=4;overflow=hidden;rotatable=0;points=[[0,0.5],[1,0.5]];portConstraint=eastwest;fontSize=12;whiteSpace=wrap;html=1;" vertex="1" parent="qBLTDuadF-PluUk9ZCLZ-17">
          <mxGeometry y="56" width="160" height="30" as="geometry" />
        </mxCell>
        <mxCell id="qBLTDuadF-PluUk9ZCLZ-20" value="totalSum DECIMAL(8,2)" style="text;strokeColor=none;fillColor=none;spacingLeft=4;spacingRight=4;overflow=hidden;rotatable=0;points=[[0,0.5],[1,0.5]];portConstraint=eastwest;fontSize=12;whiteSpace=wrap;html=1;" vertex="1" parent="qBLTDuadF-PluUk9ZCLZ-17">
          <mxGeometry y="86" width="160" height="30" as="geometry" />
        </mxCell>
        <mxCell id="qBLTDuadF-PluUk9ZCLZ-22" value="Supplier" style="swimlane;fontStyle=0;childLayout=stackLayout;horizontal=1;startSize=26;horizontalStack=0;resizeParent=1;resizeParentMax=0;resizeLast=0;collapsible=1;marginBottom=0;align=center;fontSize=14;" vertex="1" parent="1">
          <mxGeometry x="550" y="290" width="160" height="176" as="geometry" />
        </mxCell>
        <mxCell id="qBLTDuadF-PluUk9ZCLZ-23" value="*supp_id INT" style="text;strokeColor=none;fillColor=none;spacingLeft=4;spacingRight=4;overflow=hidden;rotatable=0;points=[[0,0.5],[1,0.5]];portConstraint=eastwest;fontSize=12;whiteSpace=wrap;html=1;" vertex="1" parent="qBLTDuadF-PluUk9ZCLZ-22">
          <mxGeometry y="26" width="160" height="30" as="geometry" />
        </mxCell>
        <mxCell id="qBLTDuadF-PluUk9ZCLZ-24" value="name NVARCHAR(20)" style="text;strokeColor=none;fillColor=none;spacingLeft=4;spacingRight=4;overflow=hidden;rotatable=0;points=[[0,0.5],[1,0.5]];portConstraint=eastwest;fontSize=12;whiteSpace=wrap;html=1;" vertex="1" parent="qBLTDuadF-PluUk9ZCLZ-22">
          <mxGeometry y="56" width="160" height="30" as="geometry" />
        </mxCell>
        <mxCell id="qBLTDuadF-PluUk9ZCLZ-25" value="address NVARCHAR(50)" style="text;strokeColor=none;fillColor=none;spacingLeft=4;spacingRight=4;overflow=hidden;rotatable=0;points=[[0,0.5],[1,0.5]];portConstraint=eastwest;fontSize=12;whiteSpace=wrap;html=1;" vertex="1" parent="qBLTDuadF-PluUk9ZCLZ-22">
          <mxGeometry y="86" width="160" height="30" as="geometry" />
        </mxCell>
        <mxCell id="qBLTDuadF-PluUk9ZCLZ-26" value="bulstat NVARCHAR(12)" style="text;strokeColor=none;fillColor=none;spacingLeft=4;spacingRight=4;overflow=hidden;rotatable=0;points=[[0,0.5],[1,0.5]];portConstraint=eastwest;fontSize=12;whiteSpace=wrap;html=1;" vertex="1" parent="qBLTDuadF-PluUk9ZCLZ-22">
          <mxGeometry y="116" width="160" height="30" as="geometry" />
        </mxCell>
        <mxCell id="qBLTDuadF-PluUk9ZCLZ-27" value="mrp NVARCHAR(30)" style="text;strokeColor=none;fillColor=none;spacingLeft=4;spacingRight=4;overflow=hidden;rotatable=0;points=[[0,0.5],[1,0.5]];portConstraint=eastwest;fontSize=12;whiteSpace=wrap;html=1;" vertex="1" parent="qBLTDuadF-PluUk9ZCLZ-22">
          <mxGeometry y="146" width="160" height="30" as="geometry" />
        </mxCell>
        <mxCell id="qBLTDuadF-PluUk9ZCLZ-28" value="Partner" style="swimlane;fontStyle=0;childLayout=stackLayout;horizontal=1;startSize=26;horizontalStack=0;resizeParent=1;resizeParentMax=0;resizeLast=0;collapsible=1;marginBottom=0;align=center;fontSize=14;" vertex="1" parent="1">
          <mxGeometry x="850" y="-220" width="160" height="232" as="geometry" />
        </mxCell>
        <mxCell id="qBLTDuadF-PluUk9ZCLZ-29" value="*partner_id INT" style="text;strokeColor=none;fillColor=none;spacingLeft=4;spacingRight=4;overflow=hidden;rotatable=0;points=[[0,0.5],[1,0.5]];portConstraint=eastwest;fontSize=12;whiteSpace=wrap;html=1;" vertex="1" parent="qBLTDuadF-PluUk9ZCLZ-28">
          <mxGeometry y="26" width="160" height="26" as="geometry" />
        </mxCell>
        <mxCell id="qBLTDuadF-PluUk9ZCLZ-30" value="name NVARCHAR(20)" style="text;strokeColor=none;fillColor=none;spacingLeft=4;spacingRight=4;overflow=hidden;rotatable=0;points=[[0,0.5],[1,0.5]];portConstraint=eastwest;fontSize=12;whiteSpace=wrap;html=1;" vertex="1" parent="qBLTDuadF-PluUk9ZCLZ-28">
          <mxGeometry y="52" width="160" height="30" as="geometry" />
        </mxCell>
        <mxCell id="qBLTDuadF-PluUk9ZCLZ-31" value="surname NVARCHAR(20)" style="text;strokeColor=none;fillColor=none;spacingLeft=4;spacingRight=4;overflow=hidden;rotatable=0;points=[[0,0.5],[1,0.5]];portConstraint=eastwest;fontSize=12;whiteSpace=wrap;html=1;" vertex="1" parent="qBLTDuadF-PluUk9ZCLZ-28">
          <mxGeometry y="82" width="160" height="30" as="geometry" />
        </mxCell>
        <mxCell id="qBLTDuadF-PluUk9ZCLZ-35" value="egn INT" style="text;strokeColor=none;fillColor=none;spacingLeft=4;spacingRight=4;overflow=hidden;rotatable=0;points=[[0,0.5],[1,0.5]];portConstraint=eastwest;fontSize=12;whiteSpace=wrap;html=1;" vertex="1" parent="qBLTDuadF-PluUk9ZCLZ-28">
          <mxGeometry y="112" width="160" height="30" as="geometry" />
        </mxCell>
        <mxCell id="qBLTDuadF-PluUk9ZCLZ-32" value="address NVARCHAR(50)" style="text;strokeColor=none;fillColor=none;spacingLeft=4;spacingRight=4;overflow=hidden;rotatable=0;points=[[0,0.5],[1,0.5]];portConstraint=eastwest;fontSize=12;whiteSpace=wrap;html=1;" vertex="1" parent="qBLTDuadF-PluUk9ZCLZ-28">
          <mxGeometry y="142" width="160" height="30" as="geometry" />
        </mxCell>
        <mxCell id="qBLTDuadF-PluUk9ZCLZ-33" value="bulstat NVARCHAR(12)" style="text;strokeColor=none;fillColor=none;spacingLeft=4;spacingRight=4;overflow=hidden;rotatable=0;points=[[0,0.5],[1,0.5]];portConstraint=eastwest;fontSize=12;whiteSpace=wrap;html=1;" vertex="1" parent="qBLTDuadF-PluUk9ZCLZ-28">
          <mxGeometry y="172" width="160" height="30" as="geometry" />
        </mxCell>
        <mxCell id="qBLTDuadF-PluUk9ZCLZ-34" value="mrp NVARCHAR(30)" style="text;strokeColor=none;fillColor=none;spacingLeft=4;spacingRight=4;overflow=hidden;rotatable=0;points=[[0,0.5],[1,0.5]];portConstraint=eastwest;fontSize=12;whiteSpace=wrap;html=1;" vertex="1" parent="qBLTDuadF-PluUk9ZCLZ-28">
          <mxGeometry y="202" width="160" height="30" as="geometry" />
        </mxCell>
        <mxCell id="qBLTDuadF-PluUk9ZCLZ-36" value="Report" style="swimlane;fontStyle=0;childLayout=stackLayout;horizontal=1;startSize=26;horizontalStack=0;resizeParent=1;resizeParentMax=0;resizeLast=0;collapsible=1;marginBottom=0;align=center;fontSize=14;" vertex="1" parent="1">
          <mxGeometry x="300" y="300" width="160" height="86" as="geometry" />
        </mxCell>
        <mxCell id="qBLTDuadF-PluUk9ZCLZ-37" value="*report_id INT" style="text;strokeColor=none;fillColor=none;spacingLeft=4;spacingRight=4;overflow=hidden;rotatable=0;points=[[0,0.5],[1,0.5]];portConstraint=eastwest;fontSize=12;whiteSpace=wrap;html=1;" vertex="1" parent="qBLTDuadF-PluUk9ZCLZ-36">
          <mxGeometry y="26" width="160" height="30" as="geometry" />
        </mxCell>
        <mxCell id="qBLTDuadF-PluUk9ZCLZ-38" value="creationDate DATE" style="text;strokeColor=none;fillColor=none;spacingLeft=4;spacingRight=4;overflow=hidden;rotatable=0;points=[[0,0.5],[1,0.5]];portConstraint=eastwest;fontSize=12;whiteSpace=wrap;html=1;" vertex="1" parent="qBLTDuadF-PluUk9ZCLZ-36">
          <mxGeometry y="56" width="160" height="30" as="geometry" />
        </mxCell>
        <mxCell id="qBLTDuadF-PluUk9ZCLZ-40" value="" style="edgeStyle=entityRelationEdgeStyle;fontSize=12;html=1;endArrow=ERmandOne;startArrow=ERmandOne;rounded=0;entryX=-0.017;entryY=0.161;entryDx=0;entryDy=0;entryPerimeter=0;" edge="1" parent="1" source="qBLTDuadF-PluUk9ZCLZ-1" target="qBLTDuadF-PluUk9ZCLZ-13">
          <mxGeometry width="100" height="100" relative="1" as="geometry">
            <mxPoint x="230" y="70" as="sourcePoint" />
            <mxPoint x="330" y="-30" as="targetPoint" />
          </mxGeometry>
        </mxCell>
        <mxCell id="qBLTDuadF-PluUk9ZCLZ-41" value="Supply" style="swimlane;fontStyle=0;childLayout=stackLayout;horizontal=1;startSize=26;horizontalStack=0;resizeParent=1;resizeParentMax=0;resizeLast=0;collapsible=1;marginBottom=0;align=center;fontSize=14;" vertex="1" parent="1">
          <mxGeometry x="560" y="90" width="160" height="116" as="geometry" />
        </mxCell>
        <mxCell id="qBLTDuadF-PluUk9ZCLZ-42" value="*supply_id INT" style="text;strokeColor=none;fillColor=none;spacingLeft=4;spacingRight=4;overflow=hidden;rotatable=0;points=[[0,0.5],[1,0.5]];portConstraint=eastwest;fontSize=12;whiteSpace=wrap;html=1;" vertex="1" parent="qBLTDuadF-PluUk9ZCLZ-41">
          <mxGeometry y="26" width="160" height="30" as="geometry" />
        </mxCell>
        <mxCell id="qBLTDuadF-PluUk9ZCLZ-43" value="supplyDate DATE" style="text;strokeColor=none;fillColor=none;spacingLeft=4;spacingRight=4;overflow=hidden;rotatable=0;points=[[0,0.5],[1,0.5]];portConstraint=eastwest;fontSize=12;whiteSpace=wrap;html=1;" vertex="1" parent="qBLTDuadF-PluUk9ZCLZ-41">
          <mxGeometry y="56" width="160" height="30" as="geometry" />
        </mxCell>
        <mxCell id="qBLTDuadF-PluUk9ZCLZ-44" value="totalSum DECIMAL(8,2)" style="text;strokeColor=none;fillColor=none;spacingLeft=4;spacingRight=4;overflow=hidden;rotatable=0;points=[[0,0.5],[1,0.5]];portConstraint=eastwest;fontSize=12;whiteSpace=wrap;html=1;" vertex="1" parent="qBLTDuadF-PluUk9ZCLZ-41">
          <mxGeometry y="86" width="160" height="30" as="geometry" />
        </mxCell>
        <mxCell id="qBLTDuadF-PluUk9ZCLZ-45" value="" style="edgeStyle=entityRelationEdgeStyle;fontSize=12;html=1;endArrow=ERmandOne;startArrow=ERmandOne;rounded=0;" edge="1" parent="1" source="qBLTDuadF-PluUk9ZCLZ-13" target="qBLTDuadF-PluUk9ZCLZ-17">
          <mxGeometry width="100" height="100" relative="1" as="geometry">
            <mxPoint x="470" y="190" as="sourcePoint" />
            <mxPoint x="570" y="90" as="targetPoint" />
          </mxGeometry>
        </mxCell>
        <mxCell id="qBLTDuadF-PluUk9ZCLZ-46" value="" style="edgeStyle=entityRelationEdgeStyle;fontSize=12;html=1;endArrow=ERmandOne;startArrow=ERmandOne;rounded=0;exitX=1;exitY=0.5;exitDx=0;exitDy=0;entryX=0.063;entryY=-0.067;entryDx=0;entryDy=0;entryPerimeter=0;" edge="1" parent="1" source="qBLTDuadF-PluUk9ZCLZ-14" target="qBLTDuadF-PluUk9ZCLZ-43">
          <mxGeometry width="100" height="100" relative="1" as="geometry">
            <mxPoint x="470" y="190" as="sourcePoint" />
            <mxPoint x="570" y="90" as="targetPoint" />
            <Array as="points">
              <mxPoint x="520" y="150" />
              <mxPoint x="570" y="187" />
              <mxPoint x="610" y="190" />
            </Array>
          </mxGeometry>
        </mxCell>
        <mxCell id="qBLTDuadF-PluUk9ZCLZ-47" value="" style="edgeStyle=entityRelationEdgeStyle;fontSize=12;html=1;endArrow=ERzeroToMany;startArrow=ERmandOne;rounded=0;" edge="1" parent="1" source="qBLTDuadF-PluUk9ZCLZ-1" target="qBLTDuadF-PluUk9ZCLZ-36">
          <mxGeometry width="100" height="100" relative="1" as="geometry">
            <mxPoint x="470" y="190" as="sourcePoint" />
            <mxPoint x="570" y="90" as="targetPoint" />
          </mxGeometry>
        </mxCell>
        <mxCell id="qBLTDuadF-PluUk9ZCLZ-49" value="" style="edgeStyle=entityRelationEdgeStyle;fontSize=12;html=1;endArrow=ERoneToMany;startArrow=ERmandOne;rounded=0;" edge="1" parent="1" source="qBLTDuadF-PluUk9ZCLZ-17" target="qBLTDuadF-PluUk9ZCLZ-6">
          <mxGeometry width="100" height="100" relative="1" as="geometry">
            <mxPoint x="740" y="198" as="sourcePoint" />
            <mxPoint x="840" y="98" as="targetPoint" />
          </mxGeometry>
        </mxCell>
        <mxCell id="qBLTDuadF-PluUk9ZCLZ-50" value="" style="edgeStyle=entityRelationEdgeStyle;fontSize=12;html=1;endArrow=ERzeroToOne;startArrow=ERmandOne;rounded=0;" edge="1" parent="1" source="qBLTDuadF-PluUk9ZCLZ-17" target="qBLTDuadF-PluUk9ZCLZ-28">
          <mxGeometry width="100" height="100" relative="1" as="geometry">
            <mxPoint x="730" y="-74.93000000000006" as="sourcePoint" />
            <mxPoint x="880.48" y="-210" as="targetPoint" />
            <Array as="points">
              <mxPoint x="770.48" y="-110" />
              <mxPoint x="770.48" y="-80" />
            </Array>
          </mxGeometry>
        </mxCell>
        <mxCell id="qBLTDuadF-PluUk9ZCLZ-51" value="" style="edgeStyle=entityRelationEdgeStyle;fontSize=12;html=1;endArrow=ERmandOne;startArrow=ERmandOne;rounded=0;" edge="1" parent="1" source="qBLTDuadF-PluUk9ZCLZ-22" target="qBLTDuadF-PluUk9ZCLZ-41">
          <mxGeometry width="100" height="100" relative="1" as="geometry">
            <mxPoint x="610" y="310" as="sourcePoint" />
            <mxPoint x="710" y="210" as="targetPoint" />
          </mxGeometry>
        </mxCell>
        <mxCell id="qBLTDuadF-PluUk9ZCLZ-52" value="" style="edgeStyle=entityRelationEdgeStyle;fontSize=12;html=1;endArrow=ERoneToMany;startArrow=ERmandOne;rounded=0;" edge="1" parent="1" source="qBLTDuadF-PluUk9ZCLZ-36">
          <mxGeometry width="100" height="100" relative="1" as="geometry">
            <mxPoint x="460" y="386" as="sourcePoint" />
            <mxPoint x="560" y="1" as="targetPoint" />
          </mxGeometry>
        </mxCell>
      </root>
    </mxGraphModel>
  </diagram>
</mxfile>
